<svg width="79" height="80" viewBox="0 0 79 80" fill="none" xmlns="http://www.w3.org/2000/svg">
<path d="M75.707 24.0438C69.1063 9.80234 57.9411 1.79515 42.2924 0.0202695C41.396 -0.081868 41.2203 0.193711 41.2241 1.03586C41.2415 7.44547 41.2434 13.857 41.2434 20.2666L47.8132 20.2975C48.0624 20.2994 48.2922 20.4362 48.4101 20.6559C48.5279 20.8737 48.5163 21.1415 48.3792 21.3497L41.2415 32.2148C41.2396 32.2514 41.2396 32.2899 41.2415 32.3265L49.2021 32.3651C49.457 32.367 49.6888 32.5096 49.8047 32.737C49.9207 32.9644 49.8975 33.2381 49.7468 33.4423L41.2415 45.1111C41.2396 49.8171 41.2338 54.5251 41.2164 59.2311C41.2106 60.2043 41.5004 60.4124 42.4121 60.3874C44.763 60.3238 47.1197 60.3276 49.4706 60.3854C50.3398 60.4066 50.6238 60.2082 50.6141 59.2812C50.5658 53.7851 50.6122 48.285 50.5678 42.787C50.56 41.8831 50.8092 41.6654 51.6997 41.6692C60.462 41.7039 69.2242 41.6808 77.9864 41.7059C78.7513 41.7097 78.987 41.4977 78.9967 40.7269C79.0643 34.9339 78.1448 29.3087 75.707 24.0438ZM68.0903 32.3343C62.4883 32.3188 56.8864 32.3188 51.2864 32.3381C50.6856 32.34 50.5774 32.1011 50.5794 31.5653C50.6006 28.3239 50.591 25.0825 50.591 21.8411C50.5929 18.6305 50.6025 15.4199 50.5813 12.2093C50.5774 11.583 50.6798 11.3691 51.3424 11.6755C60.1027 15.7263 65.8785 22.3479 68.6466 31.5846C68.8243 32.1724 68.7045 32.3362 68.0903 32.3343Z" fill="white"/>
<path d="M37.5564 71.6303C37.5081 74.0585 37.5158 76.4886 37.5525 78.9187C37.5621 79.6086 37.3786 79.8206 36.662 79.7589C29.619 79.1442 23.1961 76.9781 17.5246 73.0853C16.7577 72.5611 16.0043 72.0042 15.2645 71.4126C15.2587 71.4087 15.2529 71.4048 15.2471 71.401C14.8762 71.1023 14.5053 70.7978 14.1402 70.4837C9.98515 66.9166 6.73409 62.9236 4.40252 58.524C2.33367 54.6196 0.987272 50.3915 0.378786 45.8531C0.0755083 43.5926 -0.046189 41.2569 0.0156255 38.8423C0.278337 28.7172 4.09538 19.9622 11.0611 12.5794C11.5324 12.0784 11.7449 12.2152 12.1004 12.6623C14.459 15.6224 16.8543 18.5535 19.1936 21.5251C19.6958 22.1649 19.9276 22.2902 20.5071 21.5656C25.9719 14.707 31.4792 7.88303 36.973 1.04946C37.0869 0.906848 37.2086 0.770022 37.3342 0.625488C37.6723 0.829763 37.5235 1.13425 37.5235 1.37514C37.5274 7.66527 37.5293 13.9573 37.5312 20.2494L34.1063 20.234C33.7876 20.232 33.5094 20.4556 33.4399 20.7658L29.7426 37.4856C29.6982 37.686 29.7484 37.8941 29.874 38.0541C30.0015 38.214 30.1946 38.3084 30.4013 38.3104L37.4076 38.3759L34.3903 52.3495C34.3227 52.6636 34.4849 52.9816 34.7786 53.1126C34.9408 53.1839 35.1185 53.1878 35.2789 53.1338C35.4064 53.0895 35.5223 53.0066 35.6073 52.891L37.5486 50.2277C37.5506 53.3439 37.5544 56.4619 37.5564 59.58C37.5564 60.4896 37.2994 60.6823 35.9781 60.5243C33.9672 60.2853 31.9351 60.2931 29.9223 60.5166C28.543 60.6688 28.2127 60.5609 28.2146 59.5935C28.2397 49.2025 28.2301 38.8076 28.2301 28.4165V27.1658C28.1296 27.1292 28.1296 27.1292 28.0292 27.0945C27.3454 27.9386 26.6596 28.7807 25.9758 29.6287C24.1252 31.9316 22.2592 34.221 20.4376 36.5471C19.9817 37.129 19.7402 37.1001 19.294 36.5374C17.0648 33.7123 14.8009 30.9121 12.5427 28.1101C12.2047 27.6919 11.7623 27.7555 11.5576 28.2508C8.93044 34.5737 8.54989 41.1163 9.96776 47.1173C10.0122 47.3062 10.0586 47.4931 10.1068 47.682V47.6839C10.1242 47.7475 10.1397 47.8072 10.1551 47.8708C10.2034 48.052 10.2537 48.235 10.3058 48.4143C10.7868 50.1178 11.4165 51.7732 12.1815 53.3573C12.2626 53.5269 12.3457 53.6965 12.4307 53.8642C12.4384 53.8796 12.4461 53.8931 12.4519 53.9085C12.5311 54.0704 12.6181 54.2303 12.7011 54.3922C13.3309 55.5851 14.0417 56.7337 14.826 57.8321C14.8839 57.915 14.9438 57.9979 15.0037 58.0807C15.052 58.1482 15.1022 58.2156 15.1525 58.2831C15.2104 58.3582 15.2664 58.4353 15.3224 58.5105C15.3649 58.5664 15.4055 58.6203 15.448 58.6781L15.4499 58.6801C15.5137 58.761 15.5755 58.8419 15.6392 58.9229C15.8247 59.1618 16.0159 59.3989 16.211 59.6321C16.2806 59.7168 16.352 59.8016 16.4254 59.8845C21.2624 65.5888 28.2494 69.5895 36.575 70.5049C37.3902 70.5993 37.5718 70.8672 37.5564 71.6303Z" fill="white"/>
</svg>
